<mxfile host="app.diagrams.net" agent="Mozilla/5.0 (X11; Linux x86_64; rv:123.0) Gecko/20100101 Firefox/123.0" version="24.8.3">
  <diagram name="PÃ¡gina-1" id="oXYI8295tFJx0mUEwKPu">
    <mxGraphModel dx="1241" dy="750" grid="1" gridSize="10" guides="1" tooltips="1" connect="1" arrows="1" fold="1" page="1" pageScale="1" pageWidth="827" pageHeight="1169" math="0" shadow="0">
      <root>
        <mxCell id="0" />
        <mxCell id="1" parent="0" />
        <mxCell id="IIWtllhOlH8QPKd6WJXo-15" value="" style="whiteSpace=wrap;html=1;aspect=fixed;fillColor=none;strokeWidth=2;" vertex="1" parent="1">
          <mxGeometry x="190" y="140" width="430" height="430" as="geometry" />
        </mxCell>
        <mxCell id="IIWtllhOlH8QPKd6WJXo-13" style="edgeStyle=orthogonalEdgeStyle;rounded=0;orthogonalLoop=1;jettySize=auto;html=1;" edge="1" parent="1" source="IIWtllhOlH8QPKd6WJXo-1" target="IIWtllhOlH8QPKd6WJXo-4">
          <mxGeometry relative="1" as="geometry" />
        </mxCell>
        <mxCell id="IIWtllhOlH8QPKd6WJXo-1" value="Bibliotecario" style="shape=umlActor;verticalLabelPosition=bottom;verticalAlign=top;html=1;outlineConnect=0;" vertex="1" parent="1">
          <mxGeometry x="130" y="420" width="30" height="60" as="geometry" />
        </mxCell>
        <mxCell id="IIWtllhOlH8QPKd6WJXo-11" style="edgeStyle=orthogonalEdgeStyle;rounded=0;orthogonalLoop=1;jettySize=auto;html=1;entryX=0;entryY=0.5;entryDx=0;entryDy=0;" edge="1" parent="1" source="IIWtllhOlH8QPKd6WJXo-2" target="IIWtllhOlH8QPKd6WJXo-5">
          <mxGeometry relative="1" as="geometry">
            <Array as="points">
              <mxPoint x="220" y="270" />
              <mxPoint x="220" y="390" />
            </Array>
          </mxGeometry>
        </mxCell>
        <mxCell id="IIWtllhOlH8QPKd6WJXo-2" value="Usuarios" style="shape=umlActor;verticalLabelPosition=bottom;verticalAlign=top;html=1;outlineConnect=0;" vertex="1" parent="1">
          <mxGeometry x="140" y="240" width="30" height="60" as="geometry" />
        </mxCell>
        <mxCell id="IIWtllhOlH8QPKd6WJXo-3" value="Registrar los prestamos de libros" style="ellipse;whiteSpace=wrap;html=1;fillColor=#d5e8d4;strokeColor=#82b366;" vertex="1" parent="1">
          <mxGeometry x="280" y="500" width="120" height="60" as="geometry" />
        </mxCell>
        <mxCell id="IIWtllhOlH8QPKd6WJXo-4" value="Gestionar inventario de libros" style="ellipse;whiteSpace=wrap;html=1;fillColor=#d5e8d4;strokeColor=#82b366;" vertex="1" parent="1">
          <mxGeometry x="290" y="440" width="110" height="60" as="geometry" />
        </mxCell>
        <mxCell id="IIWtllhOlH8QPKd6WJXo-5" value="Devolver libro" style="ellipse;whiteSpace=wrap;html=1;fillColor=#d5e8d4;strokeColor=#82b366;" vertex="1" parent="1">
          <mxGeometry x="270" y="360" width="110" height="60" as="geometry" />
        </mxCell>
        <mxCell id="IIWtllhOlH8QPKd6WJXo-6" value="Pedir prestado un libro" style="ellipse;whiteSpace=wrap;html=1;fillColor=#d5e8d4;strokeColor=#82b366;" vertex="1" parent="1">
          <mxGeometry x="290" y="280" width="110" height="60" as="geometry" />
        </mxCell>
        <mxCell id="IIWtllhOlH8QPKd6WJXo-7" value="&lt;div&gt;Buscar libro&lt;br&gt;&lt;/div&gt;" style="ellipse;whiteSpace=wrap;html=1;fillColor=#d5e8d4;strokeColor=#82b366;" vertex="1" parent="1">
          <mxGeometry x="290" y="190" width="110" height="70" as="geometry" />
        </mxCell>
        <mxCell id="IIWtllhOlH8QPKd6WJXo-8" style="edgeStyle=orthogonalEdgeStyle;rounded=0;orthogonalLoop=1;jettySize=auto;html=1;exitX=0.5;exitY=1;exitDx=0;exitDy=0;fillColor=#d5e8d4;strokeColor=#82b366;" edge="1" parent="1" source="IIWtllhOlH8QPKd6WJXo-6" target="IIWtllhOlH8QPKd6WJXo-6">
          <mxGeometry relative="1" as="geometry" />
        </mxCell>
        <mxCell id="IIWtllhOlH8QPKd6WJXo-10" style="edgeStyle=orthogonalEdgeStyle;rounded=0;orthogonalLoop=1;jettySize=auto;html=1;entryX=0.082;entryY=0.717;entryDx=0;entryDy=0;entryPerimeter=0;" edge="1" parent="1" source="IIWtllhOlH8QPKd6WJXo-2" target="IIWtllhOlH8QPKd6WJXo-6">
          <mxGeometry relative="1" as="geometry">
            <Array as="points">
              <mxPoint x="230" y="280" />
              <mxPoint x="230" y="323" />
            </Array>
          </mxGeometry>
        </mxCell>
        <mxCell id="IIWtllhOlH8QPKd6WJXo-12" style="edgeStyle=orthogonalEdgeStyle;rounded=0;orthogonalLoop=1;jettySize=auto;html=1;exitX=1;exitY=0.3333333333333333;exitDx=0;exitDy=0;exitPerimeter=0;entryX=0.045;entryY=0.643;entryDx=0;entryDy=0;entryPerimeter=0;" edge="1" parent="1" source="IIWtllhOlH8QPKd6WJXo-2" target="IIWtllhOlH8QPKd6WJXo-7">
          <mxGeometry relative="1" as="geometry">
            <Array as="points">
              <mxPoint x="180" y="260" />
              <mxPoint x="235" y="260" />
              <mxPoint x="235" y="235" />
            </Array>
          </mxGeometry>
        </mxCell>
        <mxCell id="IIWtllhOlH8QPKd6WJXo-14" style="edgeStyle=orthogonalEdgeStyle;rounded=0;orthogonalLoop=1;jettySize=auto;html=1;exitX=1;exitY=1;exitDx=0;exitDy=0;exitPerimeter=0;entryX=0;entryY=0.667;entryDx=0;entryDy=0;entryPerimeter=0;" edge="1" parent="1" source="IIWtllhOlH8QPKd6WJXo-1" target="IIWtllhOlH8QPKd6WJXo-3">
          <mxGeometry relative="1" as="geometry">
            <Array as="points">
              <mxPoint x="210" y="470" />
              <mxPoint x="210" y="510" />
              <mxPoint x="280" y="510" />
            </Array>
          </mxGeometry>
        </mxCell>
        <mxCell id="IIWtllhOlH8QPKd6WJXo-16" value="Casos de uso" style="text;html=1;align=center;verticalAlign=middle;resizable=0;points=[];autosize=1;strokeColor=none;fillColor=none;" vertex="1" parent="1">
          <mxGeometry x="340" y="150" width="100" height="30" as="geometry" />
        </mxCell>
      </root>
    </mxGraphModel>
  </diagram>
</mxfile>
